HIERARCHY
ROOT hips_JNT
{
  OFFSET 0 79.1032 1.32574
  CHANNELS 6 Xposition Yposition Zposition Zrotation Xrotation Yrotation
  JOINT l_upleg_JNT
  {
    OFFSET 7.51591 0 0
    CHANNELS 6 Xposition Yposition Zposition Zrotation Xrotation Yrotation
    JOINT l_leg_JNT
    {
      OFFSET 0.00021553 -37.7436 0.0132276
      CHANNELS 6 Xposition Yposition Zposition Zrotation Xrotation Yrotation
      JOINT l_foot_JNT
      {
        OFFSET 5.36456e-05 -34.5752 -3.41895e-05
        CHANNELS 6 Xposition Yposition Zposition Zrotation Xrotation Yrotation
        JOINT l_toebase_JNT
        {
          OFFSET 0 -6.10494 11.1619
          CHANNELS 6 Xposition Yposition Zposition Zrotation Xrotation Yrotation
          End Site
          {
            OFFSET 0 0 0
          }
        }
      }
    }
  }
  JOINT r_upleg_JNT
  {
    OFFSET -7.5159 1.52588e-05 0
    CHANNELS 6 Xposition Yposition Zposition Zrotation Xrotation Yrotation
    JOINT r_leg_JNT
    {
      OFFSET -0.724057 -37.7363 0.184397
      CHANNELS 6 Xposition Yposition Zposition Zrotation Xrotation Yrotation
      JOINT r_foot_JNT
      {
        OFFSET 0.000125885 -34.5752 -3.52859e-05
        CHANNELS 6 Xposition Yposition Zposition Zrotation Xrotation Yrotation
        JOINT r_toebase_JNT
        {
          OFFSET 1.10415e-05 -6.10491 11.1619
          CHANNELS 6 Xposition Yposition Zposition Zrotation Xrotation Yrotation
          End Site
          {
            OFFSET 0 0 0
          }
        }
      }
    }
  }
  JOINT spine_JNT
  {
    OFFSET 0 4.13037 -0.00851196
    CHANNELS 6 Xposition Yposition Zposition Zrotation Xrotation Yrotation
    JOINT spine1_JNT
    {
      OFFSET 0 10.694 -0.00556841
      CHANNELS 6 Xposition Yposition Zposition Zrotation Xrotation Yrotation
      JOINT spine2_JNT
      {
        OFFSET 0 10.1532 -0.0126237
        CHANNELS 6 Xposition Yposition Zposition Zrotation Xrotation Yrotation
        JOINT neck_JNT
        {
          OFFSET 0 17.0656 0.263753
          CHANNELS 6 Xposition Yposition Zposition Zrotation Xrotation Yrotation
          JOINT head_JNT
          {
            OFFSET 0 8.13758 0.00775528
            CHANNELS 6 Xposition Yposition Zposition Zrotation Xrotation Yrotation
            JOINT r_eye_LOC
            {
              OFFSET -5.0999 12.3066 9.66418
              CHANNELS 6 Xposition Yposition Zposition Zrotation Xrotation Yrotation
              JOINT r_eye_JNT
              {
                OFFSET 0 0 0
                CHANNELS 6 Xposition Yposition Zposition Zrotation Xrotation Yrotation
                End Site
                {
                  OFFSET 0 0 0
                }
              }
            }
            JOINT l_eye_LOC
            {
              OFFSET 5.1001 12.3524 9.66465
              CHANNELS 6 Xposition Yposition Zposition Zrotation Xrotation Yrotation
              JOINT l_eye_JNT
              {
                OFFSET 0 -0.0458202 0
                CHANNELS 6 Xposition Yposition Zposition Zrotation Xrotation Yrotation
                End Site
                {
                  OFFSET 0 0 0
                }
              }
            }
            JOINT headtop_End_JNT
            {
              OFFSET 0 29.3713 3.60361
              CHANNELS 6 Xposition Yposition Zposition Zrotation Xrotation Yrotation
              End Site
              {
                OFFSET 0 0 0
              }
            }
          }
        }
        JOINT r_shoulder_JNT
        {
          OFFSET -2.88677 12.5391 -0.534969
          CHANNELS 6 Xposition Yposition Zposition Zrotation Xrotation Yrotation
          JOINT r_arm_JNT
          {
            OFFSET -10.2653 -4.30258e-05 -1.95581e-05
            CHANNELS 6 Xposition Yposition Zposition Zrotation Xrotation Yrotation
            JOINT r_forearm_JNT
            {
              OFFSET -25.5729 0 0
              CHANNELS 6 Xposition Yposition Zposition Zrotation Xrotation Yrotation
              JOINT r_hand_JNT
              {
                OFFSET -19.807 -0.346 0
                CHANNELS 6 Xposition Yposition Zposition Zrotation Xrotation Yrotation
                JOINT r_handIndex1_JNT
                {
                  OFFSET -8.23562 -0.114204 3.70825
                  CHANNELS 6 Xposition Yposition Zposition Zrotation Xrotation Yrotation
                  JOINT r_handIndex2_JNT
                  {
                    OFFSET -3.89615 0.2885 -0.000463647
                    CHANNELS 6 Xposition Yposition Zposition Zrotation Xrotation Yrotation
                    JOINT r_handIndex3_JNT
                    {
                      OFFSET -2.31839 0.159237 -0.000487052
                      CHANNELS 6 Xposition Yposition Zposition Zrotation Xrotation Yrotation
                      JOINT r_handIndex4_JNT
                      {
                        OFFSET -2.566 0 0
                        CHANNELS 6 Xposition Yposition Zposition Zrotation Xrotation Yrotation
                        End Site
                        {
                          OFFSET 0 0 0
                        }
                      }
                    }
                  }
                }
                JOINT r_handMiddle1_JNT
                {
                  OFFSET -9.03092 0.0345368 1.23996
                  CHANNELS 6 Xposition Yposition Zposition Zrotation Xrotation Yrotation
                  JOINT r_handMiddle2_JNT
                  {
                    OFFSET -3.91801 0.0581239 -0.000244626
                    CHANNELS 6 Xposition Yposition Zposition Zrotation Xrotation Yrotation
                    JOINT r_handMiddle3_JNT
                    {
                      OFFSET -2.51717 0.0209293 -0.000343796
                      CHANNELS 6 Xposition Yposition Zposition Zrotation Xrotation Yrotation
                      JOINT r_handMiddle4_JNT
                      {
                        OFFSET -3.281 5.34608e-05 0
                        CHANNELS 6 Xposition Yposition Zposition Zrotation Xrotation Yrotation
                        End Site
                        {
                          OFFSET 0 0 0
                        }
                      }
                    }
                  }
                }
                JOINT r_handPinky1_JNT
                {
                  OFFSET -7.36435 -1.01523 -3.40195
                  CHANNELS 6 Xposition Yposition Zposition Zrotation Xrotation Yrotation
                  JOINT r_handPinky2_JNT
                  {
                    OFFSET -2.92337 0.0657748 -1.53088e-05
                    CHANNELS 6 Xposition Yposition Zposition Zrotation Xrotation Yrotation
                    JOINT r_handPinky3_JNT
                    {
                      OFFSET -1.90311 -0.0136937 0
                      CHANNELS 6 Xposition Yposition Zposition Zrotation Xrotation Yrotation
                      JOINT r_handPinky4_JNT
                      {
                        OFFSET -2.82564 6.37519e-05 2.03902e-05
                        CHANNELS 6 Xposition Yposition Zposition Zrotation Xrotation Yrotation
                        End Site
                        {
                          OFFSET 0 0 0
                        }
                      }
                    }
                  }
                }
                JOINT r_handRing1_JNT
                {
                  OFFSET -8.7541 -0.321932 -1.44759
                  CHANNELS 6 Xposition Yposition Zposition Zrotation Xrotation Yrotation
                  JOINT r_handRing2_JNT
                  {
                    OFFSET -3.67081 0.00366491 1.15677e-05
                    CHANNELS 6 Xposition Yposition Zposition Zrotation Xrotation Yrotation
                    JOINT r_handRing3_JNT
                    {
                      OFFSET -2.39166 0.00568779 0
                      CHANNELS 6 Xposition Yposition Zposition Zrotation Xrotation Yrotation
                      JOINT r_handRing4_JNT
                      {
                        OFFSET -2.88246 2.68889e-05 0
                        CHANNELS 6 Xposition Yposition Zposition Zrotation Xrotation Yrotation
                        End Site
                        {
                          OFFSET 0 0 0
                        }
                      }
                    }
                  }
                }
                JOINT r_handThumb1_JNT
                {
                  OFFSET -1.80121 -1.26684 3.57624
                  CHANNELS 6 Xposition Yposition Zposition Zrotation Xrotation Yrotation
                  JOINT r_handThumb2_JNT
                  {
                    OFFSET -2.63925 -0.0236185 -0.053142
                    CHANNELS 6 Xposition Yposition Zposition Zrotation Xrotation Yrotation
                    JOINT r_handThumb3_JNT
                    {
                      OFFSET -2.69898 -0.823877 3.2058e-05
                      CHANNELS 6 Xposition Yposition Zposition Zrotation Xrotation Yrotation
                      JOINT r_handThumb4_JNT
                      {
                        OFFSET -3.8753 -0.61178 -2.783e-05
                        CHANNELS 6 Xposition Yposition Zposition Zrotation Xrotation Yrotation
                        End Site
                        {
                          OFFSET 0 0 0
                        }
                      }
                    }
                  }
                }
              }
            }
          }
        }
        JOINT l_shoulder_JNT
        {
          OFFSET 2.88666 12.5391 -0.534974
          CHANNELS 6 Xposition Yposition Zposition Zrotation Xrotation Yrotation
          JOINT l_arm_JNT
          {
            OFFSET 10.2653 3.9404e-05 2.02368e-05
            CHANNELS 6 Xposition Yposition Zposition Zrotation Xrotation Yrotation
            JOINT l_forearm_JNT
            {
              OFFSET 25.5729 0 0
              CHANNELS 6 Xposition Yposition Zposition Zrotation Xrotation Yrotation
              JOINT l_hand_JNT
              {
                OFFSET 19.8068 -0.345714 0
                CHANNELS 6 Xposition Yposition Zposition Zrotation Xrotation Yrotation
                JOINT l_handMiddle1_JNT
                {
                  OFFSET 9.01306 0.0540988 1.28481
                  CHANNELS 6 Xposition Yposition Zposition Zrotation Xrotation Yrotation
                  JOINT l_handMiddle2_JNT
                  {
                    OFFSET 3.91803 0.0559228 0
                    CHANNELS 6 Xposition Yposition Zposition Zrotation Xrotation Yrotation
                    JOINT l_handMiddle3_JNT
                    {
                      OFFSET 2.51718 0.0196203 0
                      CHANNELS 6 Xposition Yposition Zposition Zrotation Xrotation Yrotation
                      JOINT l_handMiddle4_JNT
                      {
                        OFFSET 3.28131 0 0
                        CHANNELS 6 Xposition Yposition Zposition Zrotation Xrotation Yrotation
                        End Site
                        {
                          OFFSET 0 0 0
                        }
                      }
                    }
                  }
                }
                JOINT l_handRing1_JNT
                {
                  OFFSET 8.73626 -0.299045 -1.40318
                  CHANNELS 6 Xposition Yposition Zposition Zrotation Xrotation Yrotation
                  JOINT l_handRing2_JNT
                  {
                    OFFSET 3.6708 0.00369462 0
                    CHANNELS 6 Xposition Yposition Zposition Zrotation Xrotation Yrotation
                    JOINT l_handRing3_JNT
                    {
                      OFFSET 2.39166 0.00574739 0
                      CHANNELS 6 Xposition Yposition Zposition Zrotation Xrotation Yrotation
                      JOINT l_handRing4_JNT
                      {
                        OFFSET 2.88243 0 0
                        CHANNELS 6 Xposition Yposition Zposition Zrotation Xrotation Yrotation
                        End Site
                        {
                          OFFSET 0 0 0
                        }
                      }
                    }
                  }
                }
                JOINT l_handPinky1_JNT
                {
                  OFFSET 7.34662 -0.990183 -3.35839
                  CHANNELS 6 Xposition Yposition Zposition Zrotation Xrotation Yrotation
                  JOINT l_handPinky2_JNT
                  {
                    OFFSET 2.92345 0.0657637 0
                    CHANNELS 6 Xposition Yposition Zposition Zrotation Xrotation Yrotation
                    JOINT l_handPinky3_JNT
                    {
                      OFFSET 1.90305 -0.0136203 0
                      CHANNELS 6 Xposition Yposition Zposition Zrotation Xrotation Yrotation
                      JOINT l_handPinky4_JNT
                      {
                        OFFSET 2.8257 0 0
                        CHANNELS 6 Xposition Yposition Zposition Zrotation Xrotation Yrotation
                        End Site
                        {
                          OFFSET 0 0 0
                        }
                      }
                    }
                  }
                }
                JOINT l_handIndex1_JNT
                {
                  OFFSET 8.21789 -0.0980638 3.75293
                  CHANNELS 6 Xposition Yposition Zposition Zrotation Xrotation Yrotation
                  JOINT l_handIndex2_JNT
                  {
                    OFFSET 3.89626 0.286875 0
                    CHANNELS 6 Xposition Yposition Zposition Zrotation Xrotation Yrotation
                    JOINT l_handIndex3_JNT
                    {
                      OFFSET 2.31843 0.158301 0
                      CHANNELS 6 Xposition Yposition Zposition Zrotation Xrotation Yrotation
                      JOINT l_handIndex4_JNT
                      {
                        OFFSET 2.56603 -2.28882e-05 0
                        CHANNELS 6 Xposition Yposition Zposition Zrotation Xrotation Yrotation
                        End Site
                        {
                          OFFSET 0 0 0
                        }
                      }
                    }
                  }
                }
                JOINT l_handThumb1_JNT
                {
                  OFFSET 1.78384 -1.25249 3.61961
                  CHANNELS 6 Xposition Yposition Zposition Zrotation Xrotation Yrotation
                  JOINT l_handThumb2_JNT
                  {
                    OFFSET 2.63924 -0.0236215 -0.0531074
                    CHANNELS 6 Xposition Yposition Zposition Zrotation Xrotation Yrotation
                    JOINT l_handThumb3_JNT
                    {
                      OFFSET 2.81729 0.161941 -1.92873e-05
                      CHANNELS 6 Xposition Yposition Zposition Zrotation Xrotation Yrotation
                      JOINT l_handThumb4_JNT
                      {
                        OFFSET 3.92326 0 -1.52588e-05
                        CHANNELS 6 Xposition Yposition Zposition Zrotation Xrotation Yrotation
                        End Site
                        {
                          OFFSET 0 0 0
                        }
                      }
                    }
                  }
                }
              }
            }
          }
        }
      }
    }
  }
}
MOTION
Frames:	2
Frame Time:	0.0333333
1.75776e-10 71.9152 -8.03825 0.00406603 -2.64194 0.000599677 7.51591 5.40012e-13 -7.62939e-06 6.35215 -27.9547 13.4719 0.00021553 -37.7436 0.0132276 -0.205271 54.2369 0.0782773 5.34058e-05 -34.5752 -3.57628e-05 0.805194 -23.0384 2.62354 -1.90735e-06 -6.10494 11.1619 -0.278492 0.79809 -0.00114924 -7.5159 1.52588e-05 7.62939e-06 -3.21577 -28.2005 -8.52492 -0.724057 -37.7363 0.184397 -0.912248 53.9822 0.0340566 0.000125885 -34.5752 -3.52859e-05 -0.443015 -23.0103 -5.38999 1.14441e-05 -6.10491 11.1619 0.798062 0.278451 -0.00508392 -5.46438e-17 4.13037 -0.00851196 0.0239371 16.0232 0.210714 8.04912e-16 10.694 -0.00556841 0.0936848 11.4503 0.161532 -5.55112e-17 10.1532 -0.0126238 0.141438 2.05624 -0.0254479 0 17.0656 0.263753 -0.00199072 12.8147 -0.137397 4.44089e-16 8.13758 0.00775528 -0.167234 -50.3473 1.82488 -5.0999 12.3066 9.66418 -0.000255642 0.586901 -4.6652e-11 -8.78135e-07 -2.23275e-06 5.06562e-05 -0.0189858 8.05289 0.00133643 5.1001 12.3524 9.66465 -0.000255642 0.586901 -4.6652e-11 -6.90112e-07 -0.0458244 5.07552e-05 -0.018986 8.0529 -5.99866 5.68135e-07 29.3713 3.60361 -1.95045e-07 5.2964 2.28846e-06 -2.88677 12.5391 -0.534969 11.279 4.29303 15.2255 -10.2653 -4.57764e-05 -2.00272e-05 40.1607 1.43113 36.6415 -25.5729 6.39488e-14 -9.53675e-06 -0.280716 -0.0314905 21.108 -19.807 -0.346 1.24345e-13 -26.9754 11.7108 16.7746 -8.37946 -0.141451 3.66451 -6.46095 9.65706 19.1609 -3.89614 0.2885 -0.000463669 21.3912 -6.7798e-05 4.00334e-05 -2.31839 0.159237 -0.000487052 -9.74317 0.000228935 6.00572e-05 -2.566 -7.68439e-06 -1.0274e-06 -1.70755e-06 -8.53774e-07 -2.73208e-05 -9.17476 0.00728989 1.19621 -3.63326 -6.68475 -2.47964 -3.91801 0.0581241 -0.000244567 27.2978 0.000170878 -0.000115097 -2.51717 0.0209308 -0.000343851 -4.24892 -5.2015e-05 -4.91388e-05 -3.281 5.34608e-05 9.21197e-07 1.70755e-06 5.54953e-06 -2.86014e-05 -7.50819 -1.04248 -3.44569 10.4072 -14.1063 -21.3961 -2.92337 0.0657747 -1.4651e-05 16.6067 4.5243e-05 -2.18798e-05 -1.90311 -0.0136939 3.52494e-06 16.5563 -4.63864e-05 1.39951e-05 -2.82564 6.28375e-05 2.02874e-05 2.73208e-05 -4.05542e-06 2.86014e-05 -8.89794 -0.349179 -1.49134 6.01683 -14.2328 -11.9942 -3.67081 0.00366534 1.19945e-05 10.6274 0.00035153 3.05775e-05 -2.39166 0.0056871 -4.80439e-06 10.8351 3.18055e-15 -9.47644e-06 -2.88246 2.68889e-05 6.63519e-06 -1.70755e-06 2.13443e-05 3.18055e-15 -1.94506 -1.29409 3.5325 -39.8097 56.3661 74.6765 -2.63924 -0.0236187 -0.053142 -32.1683 4.77083e-15 2.66905e-05 -2.69898 -0.823876 3.23385e-05 0.356752 1.59028e-15 -2.35402e-05 -3.8753 -0.61178 -2.783e-05 5.46415e-05 -2.71073e-05 6.61675e-06 2.88666 12.5391 -0.534974 -13.8504 7.48426 -14.0853 10.2653 3.8147e-05 2.00272e-05 -47.4897 -4.10052 -7.88603 25.5729 -5.68434e-14 2.86102e-06 0.815107 -0.29751 -43.7873 19.8068 -0.345714 6.15208e-06 6.04094 9.36393 9.9754 9.08773 0.0478201 1.23588 -2.91786 -1.82551 -9.2653 3.91803 0.055923 -2.71811e-06 -10.2917 -2.60323e-05 1.52596e-05 2.51718 0.0196204 -9.63e-07 -8.81953 -5.90055e-05 -2.34729e-05 3.28131 0 5.72205e-06 8.53774e-06 2.56132e-06 2.56132e-06 8.81093 -0.305323 -1.45211 -20.4767 -6.53918 -2.80971 3.6708 0.00369478 2.92589e-06 -13.0955 1.74268e-05 -3.08438e-06 2.39166 0.00574554 6.82123e-07 -0.650486 -0.000139756 1.84124e-05 2.88243 7.6294e-06 2.38419e-07 6.83019e-06 1.38738e-06 3.41509e-06 7.42128 -0.996462 -3.40733 -23.9471 -5.96119 13.6389 2.92345 0.0657638 7.72798e-06 -26.4184 -8.0171e-05 -2.79852e-05 1.90305 -0.0136203 2.84755e-06 -10.241 2.97562e-05 -2.35851e-05 2.8257 -7.6294e-06 5.72205e-06 3.4151e-06 2.13443e-07 4.26887e-07 8.29256 -0.104343 3.704 8.00646 10.9333 -19.5522 3.89627 0.286875 -4.40871e-06 -8.81321 4.67902e-05 1.5085e-05 2.31843 0.158301 -1.80224e-06 -2.86408 2.86802e-05 5.16223e-06 2.56603 -2.28882e-05 7.62939e-06 8.33305e-13 -2.77476e-05 1.70755e-06 1.8585 -1.25877 3.57068 65.199 28.1836 -82.1428 2.63924 -0.0236215 -0.0531074 -14.9836 1.42638e-05 1.55057e-05 2.8173 0.161942 -1.92873e-05 -1.67348 -1.26258e-05 -2.40026e-05 3.92326 0 -1.52588e-05 -1.70756e-06 2.0704e-05 2.84947e-05 
1.75776e-10 70.832 -9.02535 0.00197738 -3.00523 0.000291614 7.51591 4.9738e-13 -7.62939e-06 7.44454 -29.9443 15.1295 0.00021553 -37.7436 0.0132276 -0.246128 57.5451 0.101969 5.34058e-05 -34.5752 -3.57628e-05 1.17907 -23.8409 1.61329 -1.90735e-06 -6.10494 11.1619 -0.278492 0.798091 -0.0011493 -7.5159 1.52588e-05 7.62939e-06 -3.82495 -30.3248 -9.34856 -0.724057 -37.7363 0.184397 -0.874878 57.2883 0.0139223 0.000125885 -34.5752 -3.52859e-05 -0.672167 -23.7881 -4.91466 1.14441e-05 -6.10491 11.1619 0.798063 0.278451 -0.00508386 -3.9465e-17 4.13037 -0.00851196 0.0113622 14.5262 0.0623347 3.33067e-16 10.694 -0.00556841 0.0369891 11.5054 0.0433066 2.77556e-17 10.1532 -0.0126238 0.0465608 5.41108 -0.0110705 5.55111e-17 17.0656 0.263753 0.0181414 20.9243 -0.136614 1.52309e-15 8.13758 0.00775528 -0.11304 -49.5897 0.33868 -5.0999 12.3066 9.66418 -0.000255642 0.586901 -4.66523e-11 -9.90606e-08 2.98326e-06 1.01373e-05 -0.00388919 1.6601 5.63469e-05 5.1001 12.3524 9.66465 -0.000255642 0.586901 -4.66523e-11 9.15595e-08 -0.0458192 1.01579e-05 -0.00388924 1.6601 -5.99994 5.68135e-07 29.3713 3.60361 -1.95045e-07 5.2964 2.28846e-06 -2.88677 12.5391 -0.534969 10.5862 4.42361 13.8222 -10.2653 -4.57764e-05 -2.00272e-05 44.5918 4.07149 32.6018 -25.5729 5.68434e-14 -9.53675e-06 -0.268208 -0.0274825 20.4587 -19.807 -0.346 8.88179e-14 -11.2911 10.6562 10.8324 -8.30716 -0.114932 3.69182 -4.44236 9.8483 17.789 -3.89614 0.2885 -0.000463674 21.0582 -6.79329e-05 3.95088e-05 -2.31839 0.159237 -0.000487052 -8.21428 0.000230456 5.39276e-05 -2.566 -7.68439e-06 -1.0274e-06 -1.70755e-06 -8.53774e-07 -2.73208e-05 -9.10246 0.0338088 1.22352 0.418562 -6.03433 -1.69482 -3.91801 0.058124 -0.000244577 30.7209 0.000163141 -0.000124926 -2.51717 0.0209308 -0.000343851 -3.89922 -5.23139e-05 -4.88204e-05 -3.281 5.34608e-05 9.21197e-07 1.70755e-06 5.54953e-06 -2.86014e-05 -7.43589 -1.01596 -3.41839 13.0884 -13.8302 -19.4658 -2.92337 0.0657747 -1.46803e-05 19.7379 4.43298e-05 -2.50685e-05 -1.90311 -0.0136939 3.52494e-06 14.874 -4.67773e-05 1.26272e-05 -2.82564 6.28375e-05 2.02874e-05 2.73208e-05 -4.05542e-06 2.86014e-05 -8.82564 -0.32266 -1.46403 9.75861 -13.618 -10.2776 -3.67081 0.00366528 1.19836e-05 13.7587 0.000352385 1.12263e-05 -2.39166 0.00568709 -4.80439e-06 11.1848 6.36111e-15 -9.47854e-06 -2.88246 2.68889e-05 6.63519e-06 -1.70755e-06 2.13443e-05 -0 -1.87276 -1.26757 3.5598 -40.1684 55.021 72.2574 -2.63925 -0.0236188 -0.053142 -30.0409 -1.19271e-15 2.51136e-05 -2.69898 -0.823876 3.23385e-05 1.42266 -7.95139e-16 -2.32856e-05 -3.8753 -0.61178 -2.783e-05 5.46415e-05 -2.71073e-05 6.61675e-06 2.88666 12.5391 -0.534974 -13.4529 5.67858 -11.911 10.2653 3.8147e-05 2.00272e-05 -55.4058 -3.24753 1.72856 25.5729 -5.68434e-14 2.86102e-06 0.806152 -0.290094 -43.3067 19.8068 -0.345714 6.15208e-06 2.12127 10.5931 -1.31685 9.05467 0.0489906 1.21879 -5.42104 -1.0832 -5.1718 3.91803 0.055923 -2.86119e-06 -23.4384 -2.90598e-05 1.11257e-05 2.51718 0.0196202 -9.63e-07 -10.5709 -5.82605e-05 -2.52652e-05 3.28131 -8.88179e-16 5.72205e-06 8.53774e-06 2.56132e-06 2.56132e-06 8.77787 -0.304152 -1.46921 -26.234 0.899539 -4.64202 3.6708 0.00369477 2.95614e-06 -25.4845 2.05798e-05 1.58749e-06 2.39166 0.00574554 6.82123e-07 -5.62674 -0.000140826 6.22018e-06 2.88243 7.6294e-06 2.38419e-07 6.83019e-06 1.38738e-06 3.41509e-06 7.38822 -0.995291 -3.42442 -27.5731 -4.28668 10.5368 2.92345 0.0657638 7.81919e-06 -32.5042 -7.35206e-05 -3.63147e-05 1.90305 -0.0136202 2.84755e-06 -13.4211 3.10187e-05 -2.18981e-05 2.8257 -7.6294e-06 5.72205e-06 3.4151e-06 2.13443e-07 4.26887e-07 8.2595 -0.103172 3.6869 0.389928 12.1747 -11.2007 3.89627 0.286875 -4.59953e-06 -17.3124 4.31245e-05 2.44793e-05 2.31843 0.158301 -1.80224e-06 -7.80129 2.81295e-05 7.61141e-06 2.56603 -2.28882e-05 7.62939e-06 8.22968e-13 -2.77476e-05 1.70755e-06 1.82544 -1.2576 3.55358 66.575 28.8508 -80.7654 2.63924 -0.0236215 -0.0531073 -14.6819 1.58276e-05 1.52567e-05 2.8173 0.161942 -1.92873e-05 -3.11551 -1.20178e-05 -2.43127e-05 3.92326 0 -1.52588e-05 -1.70756e-06 2.0704e-05 2.84947e-05 
